<?xml version="1.0" encoding="UTF-8"?>
<svg id="Calque_2" data-name="Calque 2" xmlns="http://www.w3.org/2000/svg" viewBox="0 0 585.79 343.68">
  <defs>
    <style>
      .cls-1 {
        fill: #ecb6ff;
      }

      .cls-2 {
        fill: #ff9fa2;
      }

      .cls-3 {
        fill: #ffa3cf;
      }

      .cls-4 {
        fill: #ffc8ee;
      }

      .cls-5 {
        fill: #c19fff;
      }
    </style>
  </defs>
  <g id="Calque_2-2" data-name="Calque 2">
    <path class="cls-2" d="M473.73,132.14S581.43,74.54,585.43,0c-.52,74.54,0,96,0,96,0,0-64.74,39.53-111.69,36.14Z"/>
    <path class="cls-3" d="M473.73,143.44s76.07-6.78,111.69-33.88c.61,46.31,0,79.06,0,79.06,0,0-98.63-18.07-111.69-45.18Z"/>
    <path class="cls-5" d="M473.73,235.26s46.71,33.88,111.69,44.05c.61,55.34,.27,64.38,.27,64.38,0,0-100.03-67.76-111.96-108.42Z"/>
    <path class="cls-1" d="M473.73,218.26s82.85,54.62,111.69,39.59v-47.22s-32.11-3.36-111.69,7.62Z"/>
    <path class="cls-4" d="M473.73,160.94s74.26,38.06,112.06,40.49c-68.37-2.09-112.06,8.72-112.06,8.72v-49.21Z"/>
    <g>
      <path d="M35,219.56c0,.72-.11,1.44-.86,3.6-.76,2.34-1.51,4.32-3.67,4.68-6.8,1.08-13.39,1.98-19.22,2.7-2.38,.36-7.13,.72-8.21,.72-2.48,0-3.13-3.42-3.02-6.84,.22-7.74,.86-22.14,1.62-40.14,.43-9.72,.86-19.44,1.62-29.16l1.3-18c.22-2.7-.11-6.66,.86-10.08,.54-1.98,1.4-2.88,2.48-2.88,1.3,0,3.67,1.26,3.67,4.68,0,1.26-.22,2.88-.54,5.22-.32,2.7-.76,6.84-1.08,10.98-1.4,17.82-2.7,39.6-3.13,56.52-.22,7.38-.43,15.48-.65,20.88,3.35-.54,10.8-1.62,13.39-2.16,4.54-.9,6.7-1.44,9.94-2.7,2.27-.9,3.13-1.08,3.46-1.08,1.3,0,2.05,1.26,2.05,3.06Z"/>
      <path d="M78.75,168.32c0,5.64-4.44,12.24-8.04,12.24-1.68,0-3.24-.6-3.24-2.64,0-1.2,.48-1.8,1.68-2.76,2.64-2.16,3.72-4.56,3.72-7.08v-.24c-.96,.36-2.04,.48-3,.48-1.92,0-5.28-3-5.28-6.48,0-2.16,1.56-4.08,6.36-4.08,5.64,0,7.8,4.8,7.8,10.56Z"/>
      <path d="M113.81,227.24c0,1.2-2.04,2.4-4.08,2.4-3.84,0-3.6-6.24-3.6-14.28,0-1.44,.12-4.44,.36-7.56-3.36,6.24-5.52,9.84-8.28,13.8-3,4.44-7.08,8.64-12.24,8.64-6.12,0-10.92-3.96-10.92-10.8,0-4.08,2.64-13.32,6.96-21,4.8-8.52,11.28-15.48,17.88-15.48,4.8,0,6.48,2.16,8.16,6.72,.36,.96,.84,2.04,1.8,2.52,1.44,.6,3.12,.96,3.24,2.76,.24,2.76-.96,10.44-1.32,15.48-.24,3.12-.24,6.6,0,8.76,.36,3,2.04,6.72,2.04,8.04Zm-10.68-25.68c-.72-.6-.96-1.44-.96-2.28,0-.72,.12-1.68,.48-2.76,.6-1.8,.72-3,.72-3.84,0-1.92-.6-4.2-2.76-4.2-5.16,0-13.8,13.92-17.04,22.44-1.2,3.24-1.8,7.32-1.8,9.84,0,1.32,.6,3.48,3,3.48,6.36,0,15-14.64,18.36-22.68Z"/>
      <path d="M160.13,216.08c0,6.6-.36,11.52-.72,13.2-.24,1.08-1.32,1.56-2.4,1.56-1.92,0-4.56-.84-4.56-2.52,0-2.4,1.2-6,1.2-17.4,0-13.2-.24-22.2-5.88-22.2-6.24,0-14.28,9.96-15.6,17.04-.72,3.84-.84,13.56-.84,16.56,0,1.68,.72,3.6,.72,5.52,0,2.28-1.08,3.24-3.12,3.24-3.12,0-3.96-1.32-3.72-3.96,.12-1.2,.12-2.52,.12-3.84v-18.36c0-9.96-.96-16.44-.96-18.72,0-2.16,1.56-2.88,3.48-2.88,3.48,0,3.36,2.4,3.36,5.16s-.12,4.92-.12,7.08c3.72-7.32,9.12-12.84,16.08-12.84,5.64,0,10.68,5.76,11.88,13.2,.96,5.88,1.08,11.88,1.08,20.16Z"/>
      <path d="M170.57,167c0-2.04,1.44-3.84,4.92-3.84,1.92,0,6.24,1.32,6.24,4.92,0,3-2.04,5.88-3.84,5.88-4.32,0-7.32-3.6-7.32-6.96Zm2.52,59.28v-12c0-5.88-.36-12-.36-16.8,0-3.96,0-7.68,.24-11.52,.12-1.92,1.8-2.76,3.48-2.76,2.04,0,3.24,.72,3.24,3.36,0,4.2-.24,8.16-.24,12.36,0,5.64,.24,12.72,.6,19.56,.12,2.4,.84,5.28,.84,8.52,0,1.44-1.2,3.12-3.12,3.12-3.12,0-4.68-1.44-4.68-3.84Z"/>
      <path d="M251.2,224.48c.12,1.08,.36,1.8,.36,2.28,0,2.28-.84,3.84-2.28,3.84-4.32,0-5.04-1.44-5.04-4.56,0-2.16,.36-6.96,.6-9.96,.24-2.52,.36-13.08,.36-18.48,0-5.76,0-6.96-1.92-6.96-7.8,0-15.72,12.12-15.96,21.12-.12,3.84-.12,8.64-.12,9.96v3.36c0,3.24-.48,4.8-4.08,4.8-2.04,0-2.76-1.2-2.76-3,0-2.64,.24-9.12,.36-11.88,.12-2.4,.12-7.92,.12-14.64,0-7.32-.12-12-3.48-12-5.64,0-16.08,17.76-16.08,28.2,0,3.24,0,5.28,.36,7.8,.12,.84,.12,1.56,.12,2.4,0,2.64-.96,3.6-3.48,3.6-2.76,0-3.72-1.56-3.84-3.84-.12-3.36-.24-8.52-.24-12.6s-.6-15.84-.96-18.84c-.48-3.6-.96-7.2-.96-10.2,0-2.16,.72-2.28,2.28-2.28,1.8,0,4.2,1.44,4.44,3.72l.48,8.16c.12,.96,.12,2.88,.24,5.28,3.96-8.52,10.92-17.04,18.24-17.04s8.76,6.24,8.88,13.92c4.92-6.72,10.68-12,16.8-12,7.32,0,8.04,7.8,8.04,14.76,0,5.16,.12,10.32-.36,15.48-.12,1.44-.24,3.48-.24,5.52,0,1.2,0,3,.12,4.08Z"/>
      <path d="M298.72,227.24c0,1.2-2.04,2.4-4.08,2.4-3.84,0-3.6-6.24-3.6-14.28,0-1.44,.12-4.44,.36-7.56-3.36,6.24-5.52,9.84-8.28,13.8-3,4.44-7.08,8.64-12.24,8.64-6.12,0-10.92-3.96-10.92-10.8,0-4.08,2.64-13.32,6.96-21,4.8-8.52,11.28-15.48,17.88-15.48,4.8,0,6.48,2.16,8.16,6.72,.36,.96,.84,2.04,1.8,2.52,1.44,.6,3.12,.96,3.24,2.76,.24,2.76-.96,10.44-1.32,15.48-.24,3.12-.24,6.6,0,8.76,.36,3,2.04,6.72,2.04,8.04Zm-10.68-25.68c-.72-.6-.96-1.44-.96-2.28,0-.72,.12-1.68,.48-2.76,.6-1.8,.72-3,.72-3.84,0-1.92-.6-4.2-2.76-4.2-5.16,0-13.8,13.92-17.04,22.44-1.2,3.24-1.8,7.32-1.8,9.84,0,1.32,.6,3.48,3,3.48,6.36,0,15-14.64,18.36-22.68Z"/>
      <path d="M350.35,214.58c0,4.65-4.05,10.5-8.25,12.75-4.65,2.4-7.05,2.7-10.05,2.7-8.85,0-14.85-7.2-16.05-16.95-.9-7.65-1.2-11.55-1.2-16.35,0-3.9,0-6.75-.15-8.1-.15-1.35-.6-2.25-1.8-3-2.55-1.65-3.45-3-3.45-4.2,0-2.85,2.25-4.2,6-4.8v-4.05c0-3.6,0-10.8,.15-15.6,.45-13.2,.75-16.5,5.7-16.5,2.25,0,3.6,1.35,3.6,3.9,0,1.5-.3,5.25-.6,8.85-.3,3.45-.6,13.5-.9,22.5,2.85-.3,5.55-.75,7.2-1.05,4.5-.75,14.1-2.25,16.35-2.25,1.35,0,2.1,.75,2.1,3,0,3.3-1.65,4.8-4.05,4.95-4.65,.3-9.75,1.35-15.9,2.4-1.8,.3-3.6,.6-5.85,.9v5.55c0,7.95,0,13.65,.75,19.8,1.05,8.85,2.1,14.4,9.15,14.4,3,0,6.3-2.1,9.45-9.6,1.05-2.55,2.1-3.45,3.6-3.45,2.4,0,4.2,1.8,4.2,4.2Z"/>
      <path d="M358.24,167c0-2.04,1.44-3.84,4.92-3.84,1.92,0,6.24,1.32,6.24,4.92,0,3-2.04,5.88-3.84,5.88-4.32,0-7.32-3.6-7.32-6.96Zm2.52,59.28v-12c0-5.88-.36-12-.36-16.8,0-3.96,0-7.68,.24-11.52,.12-1.92,1.8-2.76,3.48-2.76,2.04,0,3.24,.72,3.24,3.36,0,4.2-.24,8.16-.24,12.36,0,5.64,.24,12.72,.6,19.56,.12,2.4,.84,5.28,.84,8.52,0,1.44-1.2,3.12-3.12,3.12-3.12,0-4.68-1.44-4.68-3.84Z"/>
      <path d="M413.8,203.96c0,13.8-9.96,26.64-22.08,26.64-3.6,0-6.48-1.2-8.52-2.64-3.96-2.88-5.52-6-5.52-11.76,0-13.2,9.84-32.88,19.2-32.88,1.08,0,2.4,.24,3,.48,1.56,.6,1.92,.6,4.08,.6,1.44,0,3.12,1.08,3.12,3.36,0,.6-.12,1.08-.36,1.44,2.76,2.64,5.16,6.48,5.64,7.56,.96,2.28,1.44,3.36,1.44,7.2Zm-6.36-.36c0-10.44-7.08-9.72-7.8-13.92h-.48c-7.8,0-15.24,17.16-15.24,26.28,0,6.24,2.16,9.36,6.48,9.36s8.52-2.88,11.64-6.36c3.36-3.84,5.4-9.6,5.4-15.36Z"/>
      <path d="M458.92,216.08c0,6.6-.36,11.52-.72,13.2-.24,1.08-1.32,1.56-2.4,1.56-1.92,0-4.56-.84-4.56-2.52,0-2.4,1.2-6,1.2-17.4,0-13.2-.24-22.2-5.88-22.2-6.24,0-14.28,9.96-15.6,17.04-.72,3.84-.84,13.56-.84,16.56,0,1.68,.72,3.6,.72,5.52,0,2.28-1.08,3.24-3.12,3.24-3.12,0-3.96-1.32-3.72-3.96,.12-1.2,.12-2.52,.12-3.84v-18.36c0-9.96-.96-16.44-.96-18.72,0-2.16,1.56-2.88,3.48-2.88,3.48,0,3.36,2.4,3.36,5.16s-.12,4.92-.12,7.08c3.72-7.32,9.12-12.84,16.08-12.84,5.64,0,10.68,5.76,11.88,13.2,.96,5.88,1.08,11.88,1.08,20.16Z"/>
    </g>
    <g>
      <path d="M109.03,247.25h2.11v15.02h6.98v1.82h-9.09v-16.85Z"/>
      <path d="M120.59,246.98c-.56,2.1-1.6,4.77-2.28,5.92l-1.36,.17c.53-1.47,1.16-4.07,1.43-5.87l2.21-.22Z"/>
      <path d="M123.45,258.8l-1.7,5.3h-2.18l5.55-16.85h2.55l5.58,16.85h-2.26l-1.75-5.3h-5.79Zm5.36-1.7l-1.6-4.85c-.36-1.1-.61-2.1-.85-3.07h-.05c-.24,1-.51,2.02-.82,3.05l-1.6,4.87h4.92Z"/>
      <path d="M135.65,247.48c1.07-.22,2.59-.35,4.05-.35,2.26,0,3.71,.42,4.73,1.38,.82,.75,1.29,1.9,1.29,3.2,0,2.22-1.36,3.7-3.08,4.3v.08c1.26,.45,2.01,1.65,2.4,3.4,.53,2.35,.92,3.97,1.26,4.62h-2.18c-.27-.47-.63-1.92-1.09-4.02-.48-2.33-1.36-3.2-3.27-3.27h-1.99v7.3h-2.11v-16.62Zm2.11,7.67h2.16c2.25,0,3.69-1.28,3.69-3.2,0-2.17-1.53-3.12-3.76-3.15-1.02,0-1.75,.1-2.08,.2v6.15Z"/>
      <path d="M152.02,249.1h-4.97v-1.85h12.1v1.85h-4.99v15h-2.13v-15Z"/>
      <path d="M166.11,247.48c1.29-.2,2.81-.35,4.49-.35,3.03,0,5.19,.72,6.62,2.1,1.46,1.38,2.3,3.32,2.3,6.05s-.82,5-2.35,6.55c-1.53,1.58-4.05,2.42-7.23,2.42-1.5,0-2.76-.08-3.83-.2v-16.57Zm2.11,14.9c.53,.1,1.31,.12,2.13,.12,4.51,0,6.96-2.6,6.96-7.15,.02-3.97-2.16-6.5-6.62-6.5-1.09,0-1.92,.1-2.47,.22v13.3Z"/>
      <path d="M184.37,247.25v9.97c0,3.77,1.62,5.37,3.81,5.37,2.42,0,3.98-1.65,3.98-5.37v-9.97h2.13v9.82c0,5.17-2.64,7.3-6.18,7.3-3.35,0-5.87-1.97-5.87-7.2v-9.92h2.13Z"/>
      <path d="M216.86,256.7c-.12-2.35-.27-5.17-.24-7.27h-.07c-.56,1.97-1.24,4.07-2.06,6.4l-2.89,8.17h-1.6l-2.64-8.02c-.78-2.37-1.43-4.55-1.89-6.55h-.05c-.05,2.1-.17,4.92-.32,7.45l-.44,7.22h-2.01l1.14-16.85h2.69l2.79,8.15c.68,2.07,1.24,3.92,1.65,5.67h.07c.41-1.7,.99-3.55,1.72-5.67l2.91-8.15h2.69l1.02,16.85h-2.06l-.41-7.4Z"/>
      <path d="M236.55,255.5c0,5.8-3.42,8.87-7.59,8.87s-7.35-3.45-7.35-8.55c0-5.35,3.22-8.85,7.59-8.85s7.35,3.52,7.35,8.52Zm-12.68,.28c0,3.6,1.89,6.82,5.21,6.82s5.24-3.17,5.24-7c0-3.35-1.7-6.85-5.21-6.85s-5.24,3.32-5.24,7.02Z"/>
      <path d="M241.4,247.25v9.97c0,3.77,1.62,5.37,3.81,5.37,2.42,0,3.98-1.65,3.98-5.37v-9.97h2.13v9.82c0,5.17-2.64,7.3-6.18,7.3-3.35,0-5.87-1.97-5.87-7.2v-9.92h2.13Z"/>
      <path d="M258.57,264.1l-5.33-16.85h2.28l2.55,8.3c.7,2.27,1.31,4.32,1.75,6.3h.05c.46-1.95,1.14-4.07,1.87-6.27l2.76-8.32h2.25l-5.84,16.85h-2.33Z"/>
      <path d="M276.98,256.2h-6.35v6.07h7.08v1.82h-9.19v-16.85h8.83v1.82h-6.72v5.32h6.35v1.8Z"/>
      <path d="M294.22,256.7c-.12-2.35-.27-5.17-.24-7.27h-.07c-.56,1.97-1.24,4.07-2.06,6.4l-2.88,8.17h-1.6l-2.64-8.02c-.78-2.37-1.43-4.55-1.89-6.55h-.05c-.05,2.1-.17,4.92-.31,7.45l-.44,7.22h-2.01l1.14-16.85h2.69l2.79,8.15c.68,2.07,1.24,3.92,1.65,5.67h.07c.41-1.7,.99-3.55,1.72-5.67l2.91-8.15h2.69l1.02,16.85h-2.06l-.41-7.4Z"/>
      <path d="M308.4,256.2h-6.35v6.07h7.08v1.82h-9.19v-16.85h8.83v1.82h-6.72v5.32h6.35v1.8Z"/>
      <path d="M311.87,264.1v-16.85h2.3l5.24,8.52c1.21,1.97,2.16,3.75,2.93,5.47l.05-.03c-.19-2.25-.24-4.3-.24-6.92v-7.05h1.99v16.85h-2.13l-5.19-8.55c-1.14-1.87-2.23-3.8-3.05-5.62l-.07,.02c.12,2.12,.17,4.15,.17,6.95v7.2h-1.99Z"/>
      <path d="M330.93,249.1h-4.97v-1.85h12.1v1.85h-4.99v15h-2.13v-15Z"/>
    </g>
    <polygon points="220.52 276.84 230.6 276.84 230.5 326.81 468.52 327 468.81 260.47 478.78 260.47 478.78 336.79 220.52 336.79 220.52 276.84"/>
    <polygon points="478.77 121.48 468.7 121.48 468.81 89 230.78 88.81 230.59 168.56 220.62 168.56 220.52 79.02 478.78 79.02 478.77 121.48"/>
  </g>
</svg>